<svg width="40" height="40" viewBox="0 0 40 40" fill="none" xmlns="http://www.w3.org/2000/svg">
    <!-- 배경 제거됨 -->
    <circle cx="20" cy="20" r="18" fill="#D9D9D9" />

    <!-- 중앙 원 -->
    <circle cx="20" cy="20" r="17.5" fill="#E5E8EB" />

    <!-- 좌우 곡선 라인 -->
    <path d="M8.36 6.986C17.992 20.338 10.555 30.03 8.36 32.69C7.86 32.238 7.39 31.769 6.95 31.272C15.423 19.875 9.023 10.578 6.95 8.087C7.39 7.59 7.86 7.12 8.36 6.986Z" fill="#A3B5C9"/>
    <path d="M31.64 6.986C22.007 20.338 29.444 30.03 31.64 32.69C32.14 32.238 32.61 31.769 33.05 31.272C24.577 19.875 30.977 10.578 33.05 8.087C32.61 7.59 32.14 7.12 31.64 6.986Z" fill="#A3B5C9"/>

    <!-- 좌우 실밥 -->
    <!-- 왼쪽 -->
    <path d="M13.156 21H11.2C10.648 21 10.2 20.552 10.2 20C10.2 19.448 10.648 19 11.2 19H13.156C13.708 19 14.156 19.448 14.156 20C14.156 20.552 13.708 21 13.156 21Z" fill="#FA2D4C"/>
    <path d="M10.583 16.313C10.142 16.313 9.737 16.018 9.618 15.571C9.475 15.038 9.791 14.489 10.325 14.346L12.214 13.84C12.747 13.694 13.296 14.014 13.439 14.547C13.582 15.08 13.266 15.629 12.732 15.772L10.843 16.278C10.757 16.301 10.668 16.313 10.583 16.313Z" fill="#FA2D4C"/>
    <path d="M8.775 11.944C8.429 11.944 8.093 11.765 7.908 11.444C7.632 10.966 7.795 10.354 8.274 10.078L9.967 9.1C10.445 8.822 11.057 8.987 11.333 9.466C11.609 9.944 11.446 10.556 10.967 10.832L9.274 11.81C9.117 11.901 8.944 11.944 8.775 11.944Z" fill="#FA2D4C"/>
    <path d="M12.473 26.194C12.388 26.194 12.301 26.183 12.214 26.159L10.325 25.653C9.792 25.51 9.475 24.962 9.618 24.428C9.761 23.895 10.306 23.574 10.843 23.721L12.732 24.227C13.265 24.37 13.582 24.918 13.439 25.452C13.319 25.899 12.916 26.194 12.474 26.194H12.473Z" fill="#FA2D4C"/>
    <path d="M10.467 31.033C10.298 31.033 10.126 30.99 9.968 30.899L8.274 29.921C7.796 29.645 7.632 29.033 7.908 28.555C8.183 28.076 8.794 27.911 9.274 28.189L10.968 29.167C11.446 29.443 11.61 30.055 11.334 30.533C11.149 30.854 10.813 31.033 10.467 31.033Z" fill="#FA2D4C"/>

    <!-- 오른쪽 -->
    <path d="M28.799 21H26.843C26.291 21 25.843 20.552 25.843 20C25.843 19.448 26.291 19 26.843 19H28.799C29.351 19 29.799 19.448 29.799 20C29.799 20.552 29.351 21 28.799 21Z" fill="#FA2D4C"/>
    <path d="M29.417 16.313C29.332 16.313 29.244 16.302 29.158 16.278L27.269 15.772C26.735 15.629 26.419 15.081 26.562 14.547C26.705 14.014 27.253 13.696 27.787 13.84L29.676 14.346C30.21 14.489 30.526 15.037 30.383 15.571C30.263 16.018 29.858 16.313 29.417 16.313Z" fill="#FA2D4C"/>
    <path d="M31.225 11.944C31.056 11.944 30.883 11.901 30.726 11.81L29.033 10.832C28.554 10.556 28.391 9.944 28.667 9.466C28.942 8.987 29.554 8.822 30.033 9.1L31.726 10.078C32.205 10.354 32.368 10.966 32.092 11.444C31.907 11.765 31.571 11.944 31.225 11.944Z" fill="#FA2D4C"/>
    <path d="M27.527 26.194C27.085 26.194 26.681 25.899 26.562 25.452C26.419 24.918 26.736 24.37 27.269 24.227L29.158 23.721C29.695 23.575 30.24 23.895 30.383 24.428C30.526 24.962 30.209 25.51 29.676 25.653L27.787 26.159C27.7 26.182 27.612 26.194 27.527 26.194Z" fill="#FA2D4C"/>
    <path d="M29.533 31.033C29.187 31.033 28.851 30.854 28.666 30.533C28.39 30.054 28.554 29.443 29.032 29.167L30.726 28.189C31.204 27.912 31.816 28.076 32.092 28.555C32.368 29.034 32.204 29.645 31.726 29.921L30.032 30.899C29.874 30.99 29.702 31.033 29.533 31.033Z" fill="#FA2D4C"/>
</svg>