<svg width="40" height="40" viewBox="0 0 40 40" fill="none" xmlns="http://www.w3.org/2000/svg">
<g clip-path="url(#clip0_95_1502)">
<path d="M24.652 3.58801H15.349L3.17001 7.56501C2.64601 7.73601 2.36901 8.30801 2.56101 8.82501L5.80501 17.587C6.01201 18.147 6.71501 18.329 7.16701 17.939L14.344 11.765L15.014 13.575H24.986L25.656 11.765L32.833 17.939C33.286 18.328 33.988 18.147 34.195 17.587L37.439 8.82501C37.63 8.30801 37.354 7.73601 36.83 7.56501L24.651 3.58801H24.652Z" fill="#E36E73"/>
<path d="M24.9861 13.576H15.0141C15.0141 13.576 6.34806 21.509 5.57506 34.552C5.51506 35.558 6.31806 36.412 7.32606 36.412H32.6741C33.6821 36.412 34.4851 35.558 34.4251 34.552C33.6521 21.509 24.9861 13.576 24.9861 13.576Z" fill="#3460DD"/>
<path d="M24.0869 3.59001L18.8519 10.315L17.2729 9.08601L21.5529 3.58801L24.0869 3.59001Z" fill="#FAE6E6"/>
<path d="M16.313 3.59001L19.693 7.93301L21.273 6.70301L18.848 3.58801L16.313 3.59001Z" fill="#FAE6E6"/>
<path d="M17.5511 9.24402H15.7731V11.128H17.5511V9.24402Z" fill="#FAE6E6"/>
<path d="M16.891 9.93396L15.645 17.012H18.137L17.551 9.93396H16.891Z" fill="#FAE6E6"/>
</g>
<defs>
<clipPath id="clip0_95_1502">
<rect width="40" height="40" fill="white"/>
</clipPath>
</defs>
</svg>
