<svg width="40" height="40" viewBox="0 0 40 40" fill="none" xmlns="http://www.w3.org/2000/svg">
<path d="M5.81401 23.393C5.80701 23.381 5.80101 23.368 5.79401 23.356C5.78201 23.337 5.77601 23.317 5.76501 23.297C5.60501 23.027 5.47201 22.75 5.35801 22.469C5.35601 22.463 5.35201 22.458 5.34901 22.452C5.34601 22.444 5.34501 22.435 5.34101 22.427C5.23301 22.157 5.14901 21.883 5.08701 21.605C5.07601 21.557 5.06301 21.509 5.05401 21.461C4.99701 21.165 4.95801 20.866 4.95701 20.561C4.95701 20.557 4.95601 20.553 4.95601 20.549V20.547V20.545C4.95601 20.535 4.95901 20.526 4.95901 20.516C4.96101 20.298 4.98201 20.083 5.01601 19.87C5.07901 19.407 5.20801 18.956 5.39401 18.516C5.44901 18.386 5.50301 18.257 5.56801 18.129C5.63001 18.007 5.70001 17.887 5.77101 17.767C5.84401 17.644 5.92201 17.523 6.00401 17.403C6.08101 17.29 6.15701 17.178 6.24301 17.067C6.35101 16.927 6.47001 16.791 6.59101 16.655C9.08601 13.841 14.187 11.907 20.091 11.907C22.322 11.907 24.434 12.19 26.341 12.684C26.352 12.681 26.362 12.677 26.373 12.674C27.918 13.072 29.321 13.613 30.538 14.269C30.523 14.273 30.508 14.278 30.493 14.281C33.402 15.855 35.226 18.076 35.226 20.544C35.226 20.635 35.211 20.723 35.206 20.813C35.206 20.815 35.206 20.818 35.206 20.82C35.194 21.03 35.171 21.238 35.132 21.444C35.13 21.455 35.127 21.467 35.124 21.478C35.086 21.671 35.042 21.863 34.983 22.052C34.958 22.133 34.924 22.212 34.895 22.292C34.851 22.412 34.812 22.534 34.759 22.652C34.667 22.861 34.564 23.068 34.445 23.271C37.114 21.497 38.728 19.223 38.772 16.741C38.77 16.585 38.754 16.432 38.749 16.277C38.403 10.714 30.167 6.26001 20.03 6.26001C9.89301 6.26001 1.64501 10.72 1.30901 16.288C1.30401 16.439 1.28801 16.587 1.28601 16.738C1.33001 19.281 3.03101 21.601 5.81401 23.393Z" fill="#3D3D3D"/>
<path d="M38.77 16.741C38.726 19.224 37.111 21.498 34.443 23.271C34.442 23.274 34.441 23.276 34.439 23.279C34.372 23.324 34.293 23.363 34.224 23.407C34.221 23.407 34.217 23.407 34.214 23.408C34.203 23.415 34.191 23.421 34.181 23.428C34.199 23.425 34.22 23.424 34.238 23.422C30.799 25.63 25.722 27.035 20.042 27.035C18.92 27.035 17.83 26.965 16.762 26.86L16.784 26.844C16.774 26.844 16.764 26.842 16.754 26.841L16.748 26.845C16.694 26.84 16.643 26.831 16.589 26.825C16.145 26.779 15.707 26.726 15.275 26.663C15.147 26.644 15.022 26.623 14.895 26.603C14.46 26.534 14.027 26.463 13.605 26.377C13.571 26.37 13.54 26.362 13.506 26.355C12.764 26.202 12.049 26.021 11.355 25.819C11.086 25.741 10.815 25.665 10.553 25.581C10.332 25.509 10.119 25.431 9.905 25.354C9.583 25.24 9.267 25.121 8.96 24.997C8.794 24.929 8.63 24.861 8.469 24.791C8.095 24.629 7.734 24.458 7.384 24.281C7.294 24.235 7.201 24.192 7.113 24.146C6.662 23.909 6.225 23.663 5.819 23.401C5.817 23.398 5.816 23.396 5.815 23.393C3.031 21.601 1.332 19.281 1.288 16.738C1.287 16.82 1.276 16.899 1.276 16.982C1.276 27.34 9.673 35.736 20.03 35.736C30.387 35.736 38.784 27.339 38.784 16.982C38.784 16.901 38.773 16.822 38.772 16.741H38.77Z" fill="#C2C2C2"/>
<path d="M11.338 13.51C12.338 13.851 13.513 14.351 14.463 15.02C16.054 14.428 17.992 14.077 20.089 14.077C21.144 14.077 22.158 14.168 23.11 14.33C24.015 13.567 25.205 13 26.339 12.683C24.432 12.188 22.321 11.906 20.089 11.906" fill="#EFF1F3"/>
<path d="M29.846 19.202C29.846 19.643 29.729 20.069 29.529 20.478C30.928 20.756 33.616 21.192 35.204 20.813C35.209 20.723 35.224 20.635 35.224 20.544C35.224 18.076 33.4 15.855 30.491 14.281C29.294 14.569 28.124 15.101 27.127 15.659C28.808 16.58 29.846 17.826 29.846 19.202Z" fill="#EFF1F3"/>
<path d="M20.09 24.327C15.775 24.327 12.121 22.854 10.834 20.814C9.02798 20.961 6.90798 21.38 5.34998 22.452C5.35198 22.458 5.35598 22.463 5.35898 22.469C5.47298 22.75 5.60798 23.026 5.76598 23.297C5.77698 23.316 5.78298 23.337 5.79498 23.356C5.80198 23.368 5.80798 23.381 5.81498 23.393C5.81598 23.396 5.81798 23.398 5.81898 23.401C6.22598 23.663 6.66198 23.909 7.11298 24.146C7.20098 24.192 7.29498 24.236 7.38398 24.281C7.73398 24.458 8.09498 24.629 8.46898 24.791C8.63098 24.861 8.79398 24.93 8.95998 24.997C9.26798 25.122 9.58398 25.24 9.90498 25.354C10.12 25.43 10.332 25.509 10.553 25.581C10.814 25.666 11.085 25.742 11.355 25.819C12.05 26.02 12.763 26.203 13.506 26.355C13.539 26.362 13.571 26.37 13.605 26.377C14.027 26.462 14.459 26.534 14.895 26.603C15.022 26.623 15.147 26.644 15.275 26.663C15.707 26.726 16.146 26.779 16.589 26.825C16.643 26.831 16.694 26.839 16.748 26.845L16.754 26.841L20.239 24.323C20.189 24.323 20.141 24.327 20.09 24.327Z" fill="#CF3D40"/>
<path d="M10.8341 20.814C10.5141 20.307 10.3341 19.766 10.3341 19.202C10.3341 18.936 10.3851 18.676 10.4591 18.421C8.40405 18.277 6.49805 18.575 5.25005 18.858C5.19605 19.014 5.16205 19.173 5.12305 19.332C5.07905 19.51 5.04405 19.689 5.01505 19.869C4.98105 20.082 4.96006 20.297 4.95806 20.515C4.95806 20.525 4.95605 20.536 4.95605 20.546V20.548C4.95605 20.552 4.95705 20.556 4.95705 20.56C4.95705 20.865 4.99405 21.165 5.05405 21.46C5.06405 21.508 5.07605 21.556 5.08705 21.604C5.15105 21.882 5.23405 22.156 5.34105 22.426C5.34405 22.434 5.34505 22.443 5.34905 22.451C6.90805 21.379 9.02806 20.96 10.8331 20.813L10.8341 20.814Z" fill="#F09336"/>
<path d="M11.338 13.51C9.91397 14.088 8.67197 14.8 7.67297 15.618C9.06497 15.679 10.772 15.844 12.132 16.244C12.772 15.77 13.56 15.356 14.463 15.02C13.512 14.351 12.338 13.851 11.338 13.51Z" fill="#429091"/>
<path d="M10.459 18.421C10.693 17.619 11.276 16.878 12.132 16.244C10.772 15.844 9.06498 15.68 7.67298 15.618C7.35698 15.877 7.05798 16.143 6.79298 16.422C6.72098 16.498 6.65898 16.577 6.59098 16.654C6.47098 16.79 6.35098 16.926 6.24298 17.066C6.15798 17.176 6.08098 17.289 6.00398 17.402C5.92198 17.522 5.84398 17.643 5.77098 17.766C5.69998 17.886 5.62998 18.006 5.56798 18.128C5.50298 18.255 5.44798 18.385 5.39398 18.515C5.34598 18.629 5.29098 18.742 5.25098 18.858C6.49898 18.575 8.40498 18.277 10.46 18.421H10.459Z" fill="#F7CC46"/>
<path d="M34.893 22.292C34.922 22.212 34.956 22.133 34.981 22.052C35.039 21.863 35.086 21.672 35.122 21.478C35.124 21.467 35.127 21.455 35.13 21.444C35.167 21.238 35.192 21.03 35.204 20.82C35.204 20.818 35.204 20.815 35.204 20.813C33.616 21.193 30.927 20.756 29.529 20.478C29.256 21.038 28.815 21.562 28.223 22.031C30.624 23.495 32.701 23.648 34.215 23.409C34.218 23.409 34.222 23.409 34.225 23.408C34.294 23.364 34.372 23.325 34.44 23.28C34.441 23.277 34.442 23.275 34.444 23.272C34.562 23.069 34.666 22.862 34.758 22.653C34.81 22.534 34.851 22.413 34.894 22.293L34.893 22.292Z" fill="#5E7E66"/>
<path d="M27.127 15.658C28.125 15.1 29.294 14.568 30.491 14.28C30.506 14.276 30.521 14.271 30.536 14.268C29.319 13.613 27.916 13.071 26.371 12.673C26.36 12.676 26.35 12.68 26.339 12.683C25.205 12.999 24.015 13.566 23.11 14.33C24.655 14.594 26.028 15.056 27.126 15.658H27.127Z" fill="#F09336"/>
<path d="M27.127 15.658C26.028 15.056 24.656 14.595 23.111 14.33C22.159 14.167 21.146 14.077 20.09 14.077C17.992 14.077 16.054 14.428 14.464 15.02C13.561 15.356 12.773 15.77 12.133 16.244C11.277 16.878 10.694 17.619 10.46 18.421C10.385 18.676 10.335 18.936 10.335 19.202C10.335 19.766 10.515 20.307 10.835 20.814C12.122 22.854 15.776 24.327 20.091 24.327C20.142 24.327 20.19 24.323 20.241 24.323C20.253 24.323 20.264 24.323 20.276 24.323C23.592 24.29 26.503 23.391 28.219 22.036C28.221 22.035 28.222 22.033 28.224 22.032C28.816 21.563 29.257 21.039 29.53 20.479C29.73 20.07 29.847 19.645 29.847 19.203C29.847 17.827 28.809 16.58 27.128 15.659L27.127 15.658ZM20.09 15.796C22.496 15.796 24.446 16.966 24.446 18.409C24.446 19.852 22.496 21.022 20.09 21.022C17.684 21.022 15.734 19.852 15.734 18.409C15.734 16.966 17.684 15.796 20.09 15.796Z" fill="white"/>
<path d="M1.27698 16.637C1.27698 16.671 1.28598 16.704 1.28598 16.738C1.28798 16.587 1.30298 16.439 1.30898 16.288C1.30198 16.405 1.27698 16.52 1.27698 16.638V16.637Z" fill="#F7CC66"/>
<path d="M38.7799 16.637C38.7799 16.515 38.7549 16.397 38.7469 16.277C38.7529 16.432 38.7679 16.585 38.7699 16.741C38.7699 16.706 38.7799 16.672 38.7799 16.637Z" fill="#F7CC66"/>
<path d="M28.217 22.0351C26.501 23.3911 23.591 24.2901 20.274 24.3221L16.784 26.8431L16.762 26.8591C17.83 26.9641 18.92 27.0341 20.042 27.0341C25.722 27.0341 30.8 25.6291 34.238 23.4211C34.22 23.4241 34.199 23.4251 34.181 23.4271C32.666 23.6571 30.602 23.4951 28.217 22.0351Z" fill="#F7CC66"/>
<path d="M20.09 21.023C22.496 21.023 24.446 19.853 24.446 18.41C24.446 16.967 22.496 15.797 20.09 15.797C17.684 15.797 15.734 16.967 15.734 18.41C15.734 19.853 17.684 21.023 20.09 21.023Z" fill="#F7CC66"/>
</svg>
