<svg width="40" height="40" viewBox="0 0 40 40" fill="none" xmlns="http://www.w3.org/2000/svg">
<g clip-path="url(#clip0_95_1530)">
<path d="M14.404 8.08805L1.74005 32.1441C1.01205 33.5271 2.01505 35.1891 3.57805 35.1891H28.906C30.469 35.1891 31.472 33.5271 30.744 32.1441L18.08 8.08705C17.301 6.60705 15.183 6.60705 14.404 8.08705V8.08805Z" fill="#23B169"/>
<path d="M30.6361 17.661L38.2601 32.144C38.9881 33.527 37.9851 35.189 36.4221 35.189H17.7321L26.9591 17.661C27.7381 16.181 29.8571 16.181 30.6361 17.661Z" fill="#0A9F60"/>
<path d="M12.807 18.247C14.521 18.247 14.521 20.034 16.235 20.034C17.949 20.034 17.951 18.247 19.666 18.247C21.381 18.247 21.383 20.034 23.1 20.034C23.572 20.034 23.908 19.894 24.192 19.698L17.951 7.84304C17.227 6.46704 15.257 6.46704 14.532 7.84304L8.29004 19.7C8.57304 19.895 8.90904 20.034 9.37804 20.034C11.092 20.034 11.092 18.247 12.806 18.247H12.807Z" fill="#68C76F"/>
</g>
<defs>
<clipPath id="clip0_95_1530">
<rect width="40" height="40" fill="white"/>
</clipPath>
</defs>
</svg>
