<svg width="40" height="40" viewBox="0 0 40 40" fill="none" xmlns="http://www.w3.org/2000/svg">
<g clip-path="url(#clip0_95_1535)">
<path d="M36.618 15.5791H32.093V10.5181L35.108 9.45205H34.728H32.093V8.55505H8.16V9.45205H5.482H5.101L8.122 10.5201L8.16 10.4561V15.5791H3.591L8.16 17.2891V20.1261H32.093V17.2721L36.618 15.5791Z" fill="#313D4F"/>
<path d="M32.087 4.78601H8.12201C7.94801 6.66701 6.79601 8.16501 5.10101 9.45201H35.108C33.413 8.16501 32.261 6.66601 32.087 4.78601Z" fill="#68778A"/>
<path d="M37.627 25.207V35.709H2.62701V25.207C2.62701 24.618 2.86701 24.055 3.29201 23.648L8.16001 18.975H32.094L36.962 23.648C37.387 24.056 37.627 24.619 37.627 25.207Z" fill="#B5B5B5"/>
<path d="M20.339 23.793C23.063 23.793 25.274 26.004 25.274 28.728V35.695H15.404V28.728C15.404 26.004 17.615 23.793 20.339 23.793Z" fill="#9B5250"/>
<path d="M32.087 11.432H8.12203C7.49103 13.319 5.74103 14.564 3.59003 15.578H36.617C34.466 14.563 32.716 13.319 32.086 11.432H32.087Z" fill="#68778A"/>
</g>
<defs>
<clipPath id="clip0_95_1535">
<rect width="40" height="40" fill="white"/>
</clipPath>
</defs>
</svg>
